HIERARCHY
ROOT Hips
{
	OFFSET 0.000000 0.000000 0.000000
	CHANNELS 6 Xposition Yposition Zposition Xrotation Yrotation Zrotation
	JOINT LeftUpLeg_virtual
	{
		OFFSET 0.000000 0.000000 0.000000
		CHANNELS 3 Xrotation Yrotation Zrotation
		JOINT LeftUpLeg
		{
			OFFSET 15.427100 -6.655098 0.678600
			CHANNELS 3 Xrotation Yrotation Zrotation
			JOINT LeftLeg
			{
				OFFSET 4.081073 -39.591068 13.024000
				CHANNELS 3 Xrotation Yrotation Zrotation
				JOINT LeftFoot
				{
					OFFSET -4.081074 -37.707932 -15.979700
					CHANNELS 3 Xrotation Yrotation Zrotation
					JOINT LeftToeBase
					{
						OFFSET 5.346399 -15.068900 20.645000
						CHANNELS 3 Xrotation Yrotation Zrotation
						JOINT LeftToe_End
						{
							OFFSET 2.754700 0.931300 11.300900
							CHANNELS 3 Xrotation Yrotation Zrotation
							End Site
							{
								OFFSET 0 0 0
							}
						}
					}
				}
			}
		}
	}
	JOINT RightUpLeg_virtual
	{
		OFFSET 0.000000 0.000000 0.000000
		CHANNELS 3 Xrotation Yrotation Zrotation
		JOINT RightUpLeg
		{
			OFFSET -15.569500 -6.655098 0.678600
			CHANNELS 3 Xrotation Yrotation Zrotation
			JOINT RightLeg
			{
				OFFSET -4.081825 -39.591045 13.023800
				CHANNELS 3 Xrotation Yrotation Zrotation
				JOINT RightFoot
				{
					OFFSET 4.081824 -37.707954 -15.979600
					CHANNELS 3 Xrotation Yrotation Zrotation
					JOINT RightToeBase
					{
						OFFSET -5.346400 -15.068900 20.645000
						CHANNELS 3 Xrotation Yrotation Zrotation
						JOINT RightToe_End
						{
							OFFSET -2.754700 0.931300 11.300900
							CHANNELS 3 Xrotation Yrotation Zrotation
							End Site
							{
								OFFSET 0 0 0
							}
						}
					}
				}
			}
		}
	}
	JOINT Spine_virtual
	{
		OFFSET 0.000000 0.000000 0.000000
		CHANNELS 3 Xrotation Yrotation Zrotation
		JOINT Spine
		{
			OFFSET -0.279200 12.230698 -2.892100
			CHANNELS 3 Xrotation Yrotation Zrotation
			JOINT Spine1
			{
				OFFSET -0.232667 10.192268 -1.242267
				CHANNELS 3 Xrotation Yrotation Zrotation
				JOINT Spine1_split
				{
					OFFSET -0.232667 10.192268 -1.242267
					CHANNELS 3 Xrotation Yrotation Zrotation
					JOINT Spine2
					{
						OFFSET -0.232667 10.192268 -1.242267
						CHANNELS 3 Xrotation Yrotation Zrotation
						JOINT Neck_virtual
						{
							OFFSET 0.000000 0.000000 0.000000
							CHANNELS 3 Xrotation Yrotation Zrotation
							JOINT Neck
							{
								OFFSET -0.418800 17.814194 8.416900
								CHANNELS 3 Xrotation Yrotation Zrotation
								JOINT Head
								{
									OFFSET 0.000000 7.031097 3.806800
									CHANNELS 3 Xrotation Yrotation Zrotation
									JOINT HeadTop_End
									{
										OFFSET 0.000000 24.646606 12.978600
										CHANNELS 3 Xrotation Yrotation Zrotation
										End Site
										{
											OFFSET 0 0 0
										}
									}
								}
							}
						}
						JOINT LeftShoulder_virtual
						{
							OFFSET 0.000000 0.000000 0.000000
							CHANNELS 3 Xrotation Yrotation Zrotation
							JOINT LeftShoulder
							{
								OFFSET 8.476499 7.247704 -3.868750
								CHANNELS 3 Xrotation Yrotation Zrotation
								JOINT LeftShoulder_split
								{
									OFFSET 8.476499 7.247704 -3.868750
									CHANNELS 3 Xrotation Yrotation Zrotation
									JOINT LeftArm
									{
										OFFSET 9.308998 -2.777710 0.208600
										CHANNELS 3 Xrotation Yrotation Zrotation
										JOINT LeftForeArm
										{
											OFFSET 29.972298 0.000000 0.000000
											CHANNELS 3 Xrotation Yrotation Zrotation
											JOINT LeftHand
											{
												OFFSET 26.026505 0.000000 0.000000
												CHANNELS 3 Xrotation Yrotation Zrotation
												End Site
												{
													OFFSET 0 0 0
												}
											}
										}
									}
								}
							}
						}
						JOINT RightShoulder_virtual
						{
							OFFSET 0.000000 0.000000 0.000000
							CHANNELS 3 Xrotation Yrotation Zrotation
							JOINT RightShoulder
							{
								OFFSET -7.570500 7.247704 -3.868750
								CHANNELS 3 Xrotation Yrotation Zrotation
								JOINT RightShoulder_split
								{
									OFFSET -7.570500 7.247704 -3.868750
									CHANNELS 3 Xrotation Yrotation Zrotation
									JOINT RightArm
									{
										OFFSET -9.308998 -2.777710 0.208500
										CHANNELS 3 Xrotation Yrotation Zrotation
										JOINT RightForeArm
										{
											OFFSET -29.972300 0.000000 0.000000
											CHANNELS 3 Xrotation Yrotation Zrotation
											JOINT RightHand
											{
												OFFSET -26.026505 0.000000 0.000000
												CHANNELS 3 Xrotation Yrotation Zrotation
												End Site
												{
													OFFSET 0 0 0
												}
											}
										}
									}
								}
							}
						}
					}
				}
			}
		}
	}
}
MOTION
Frames: 4
Frame Time: 0.03333333
9.787582 90.055611 12.305589 0.000000 0.000000 0.000000 -1.920574 6.742186 -5.469426 5.832121 9.897118 11.475213 18.809373 -6.251787 -1.357896 -23.007298 3.736300 1.184483 -3.360232 -0.811848 0.305852 0.000000 0.000000 0.000000 -1.354974 6.752363 -5.799507 -35.519750 -7.877254 -4.994196 30.805471 -1.395747 -0.412642 5.182179 3.724827 5.776603 2.111135 0.954851 1.732204 0.000000 0.000000 0.000000 -1.497088 6.160351 -5.657438 12.046112 -0.501271 3.879045 0.286860 -1.656283 0.914772 0.890146 -0.512832 0.351827 0.000000 0.000000 0.000000 -3.073986 -1.568592 1.100237 -1.580876 -1.217400 5.287677 -3.889389 0.303824 -4.815703 0.000000 0.000000 0.000000 -3.406371 -1.754918 1.008334 0.496866 -1.741557 -2.838829 -1.115619 -0.046188 0.219616 -0.576334 -11.336979 -74.121664 10.648297 -11.970692 -3.613801 0.000000 0.000000 0.000000 -3.403249 -1.899127 1.043369 2.571644 0.277414 7.846193 -3.727176 0.692944 -1.866671 2.534692 10.154254 71.417175 11.045836 18.545140 3.778365 0.000000 0.000000 0.000000 
10.042332 89.500717 14.540518 0.000000 0.000000 0.000000 -1.759174 7.080138 -5.878234 8.108308 9.800744 11.544504 17.985626 -6.946478 -0.765257 -24.217802 3.953027 0.652281 -4.244244 -0.894234 0.200996 0.000000 0.000000 0.000000 -1.059783 6.785710 -6.263331 -37.254249 -7.318799 -4.693195 25.560192 0.145338 -0.745920 6.814537 4.459461 6.916750 3.129378 -0.366330 1.024658 0.000000 0.000000 0.000000 -1.206090 6.330138 -5.961136 11.957727 -0.720217 4.005388 0.126553 -1.816307 1.000179 0.874081 -0.520095 0.371426 0.000000 0.000000 0.000000 -3.184261 -1.694534 1.189889 -1.855337 -1.279454 5.163191 -4.277640 0.147791 -5.484390 0.000000 0.000000 0.000000 -3.564563 -1.861311 1.012534 0.509309 -1.846499 -2.819557 -1.043785 0.191035 0.338014 -1.089246 -12.131288 -73.955656 10.715142 -12.506053 -4.076326 0.000000 0.000000 0.000000 -3.414215 -1.989402 1.124666 2.689960 -0.380247 7.898331 -3.700830 0.444123 -2.050514 2.649460 10.441199 71.230574 10.767410 18.022719 4.757903 0.000000 0.000000 0.000000 
10.195662 88.985794 16.861361 0.000000 0.000000 0.000000 -1.581823 7.496603 -6.250314 10.229692 9.448049 11.887387 17.213506 -7.422314 -0.179164 -24.935822 4.390852 0.301987 -4.613405 -0.981439 -0.115470 0.000000 0.000000 0.000000 -0.843767 7.133062 -6.709623 -38.784956 -6.713986 -4.526885 21.209136 1.575013 -0.905357 8.951251 5.167950 7.440454 3.225195 -1.636438 0.489200 0.000000 0.000000 0.000000 -0.997828 6.484202 -6.270684 12.112142 -1.147902 3.964225 -0.052645 -2.040201 1.229440 0.733583 -0.406270 0.364402 0.000000 0.000000 0.000000 -3.311378 -1.902776 1.433886 -2.279690 -1.306796 4.897187 -4.718468 -0.049731 -6.069990 0.000000 0.000000 0.000000 -3.749196 -2.042703 1.178095 0.503702 -1.990189 -3.094479 -1.129914 0.514975 0.301853 -1.250022 -13.082562 -73.561540 10.799378 -12.813792 -4.483903 0.000000 0.000000 0.000000 -3.515663 -2.164777 1.341897 2.798047 -0.953096 7.747470 -3.657352 0.413739 -2.156241 2.887236 10.880629 71.331340 10.394084 17.648473 5.495079 0.000000 0.000000 0.000000 
10.236250 88.491196 19.263111 0.000000 0.000000 0.000000 -1.407743 7.901485 -6.614849 12.383479 8.997366 12.537225 16.360863 -7.632403 0.414409 -25.522750 5.024447 0.001651 -4.303303 -1.092800 -0.511409 0.000000 0.000000 0.000000 -0.748514 7.661907 -7.113659 -40.278753 -6.243792 -4.493226 17.946209 2.537299 -0.902194 11.100575 5.528681 6.944349 3.139846 -2.673454 0.244297 0.000000 0.000000 0.000000 -0.874614 6.535179 -6.581884 12.446824 -1.654463 3.816110 -0.247207 -2.291688 1.529519 0.646055 -0.133584 0.309818 0.000000 0.000000 0.000000 -3.418687 -2.156139 1.748949 -2.856215 -1.320435 4.580337 -5.204904 -0.279762 -6.516227 0.000000 0.000000 0.000000 -3.930690 -2.270182 1.439801 0.477374 -2.108022 -3.559686 -1.335790 0.781846 0.217109 -1.112690 -14.131912 -73.034352 10.879549 -13.044265 -4.809444 0.000000 0.000000 0.000000 -3.669106 -2.395224 1.620044 2.855177 -1.443599 7.438868 -3.587098 0.601399 -2.109755 3.171357 11.363783 71.715415 9.940448 17.538674 5.993099 0.000000 0.000000 0.000000 
